# AST/ASF file generated using VICON BodyLanguage
# -----------------------------------------------
:version 1.10
:name VICON
:units
  mass 1.0
  length 0.45
  angle deg
:documentation
   .ast/.asf automatically generated from VICON data using
   VICON BodyBuilder and BodyLanguage model FoxedUp or BRILLIANT.MOD
:root
   order TX TY TZ RX RY RZ
   axis XYZ
   position 0 0 0  
   orientation 0 0 0 
:bonedata
  begin
     id 1 
     name lhipjoint
     direction 0.603808 -0.713975 0.35448 
     length 2.2025 
     axis 0 0 0  XYZ
  end
  begin
     id 2 
     name lfemur
     direction 0.34202 -0.939693 0  
     length 6.55877  
     axis 0 0 20  XYZ
    dof rx ry rz
    limits (-160.0 20.0)
           (-70.0 70.0)
           (-60.0 70.0)
  end
  begin
     id 3 
     name ltibia
     direction 0.34202 -0.939693 0   
     length 6.80302   
     axis 0 0 20   XYZ
    dof rx
    limits (-10.0 170.0)
  end
  begin
     id 4 
     name lfoot
     direction 0.091848 -0.25235 0.963267   
     length 2.03446   
     axis -90 7.62852e-016 20   XYZ
    dof rx rz
    limits (-45.0 90.0)
           (-70.0 20.0)
  end
  begin
     id 5 
     name ltoes
     direction 1.53608e-011 -4.21925e-011 1   
     length 1.02033   
     axis -90 7.62852e-016 20   XYZ
    dof rx
    limits (-90.0 20.0)
  end
  begin
     id 6 
     name rhipjoint
     direction -0.587285 -0.724947 0.359928   
     length 2.16916  
     axis 0 0 0  XYZ 
  end
  begin
     id 7 
     name rfemur
     direction -0.34202 -0.939693 0   
     length 6.43173   
     axis 0 0 -20   XYZ
    dof rx ry rz
    limits (-160.0 20.0)
           (-70.0 70.0)
           (-70.0 60.0)
  end
  begin
     id 8 
     name rtibia
     direction -0.34202 -0.939693 0   
     length 6.70662   
     axis 0 0 -20   XYZ
    dof rx
    limits (-10.0 170.0)
 end
 begin
     id 9 
     name rfoot
     direction -0.11854 -0.325686 0.938018   
     length 2.0773  
     axis -90 -7.62852e-016 -20   XYZ
    dof rx rz
    limits (-45.0 90.0)
           (-20.0 70.0)
  end
  begin
     id 10 
     name rtoes
     direction -1.53547e-011 -4.21838e-011 1   
     length 1.03267   
     axis -90 -7.62852e-016 -20   XYZ
    dof rx
    limits (-90.0 20.0)
  end
  begin
     id 11 
     name lowerback
     direction -0.0286554 0.999539 0.0100613   
     length 2.08751   
     axis 0 0 0   XYZ
    dof rx ry rz
    limits (-20.0 45.0)
           (-30.0 30.0)
           (-30.0 30.0)
  end
  begin
     id 12 
     name upperback
     direction 0.0227093 0.999705 -0.00860929   
     length 2.08517   
     axis 0 0 0   XYZ
    dof rx ry rz
    limits (-20.0 45.0)
           (-30.0 30.0)
           (-30.0 30.0)
  end
  begin
     id 13 
     name thorax
     direction 0.0351627 0.999285 -0.013892   
     length 2.08412   
     axis 0 0 0   XYZ
    dof rx ry rz
    limits (-20.0 45.0)
           (-30.0 30.0)
           (-30.0 30.0)
  end
  begin
     id 14 
     name lowerneck
     direction -0.0696283 0.997344 0.0213922   
     length 1.44164   
     axis 0 0 0   XYZ
    dof rx ry rz
    limits (-20.0 45.0)
           (-30.0 30.0)
           (-30.0 30.0)
  end
  begin
     id 15 
     name upperneck
     direction 0.0531 0.990412 -0.127531   
     length 1.45022   
     axis 0 0 0   XYZ
    dof rx ry rz
    limits (-20.0 45.0)
           (-30.0 30.0)
           (-30.0 30.0)
  end
  begin
     id 16
     name head
     direction 0.0188154 0.998548 -0.0504727  
     length 1.45845  
     axis 0 0 0   XYZ
    dof rx ry rz
    limits (-20.0 45.0)
           (-30.0 30.0)
           (-30.0 30.0)
  end
  begin
     id 17 
     name lclavicle
     direction 0.961559 0.260051 0.088188  
     length 2.86057  
     axis 0 0 0   XYZ
    dof ry rz
    limits (-20.0 10.0)
           (0.0 20.0)
  end
  begin
     id 18 
     name lhumerus
     direction 1 -4.48959e-011 2.88185e-027   
     length 4.36901   
     axis 180 -30 -90   XYZ
    dof rx ry rz
    limits (-60.0 90.0)
           (-90.0 90.0)
           (-90.0 90.0)
  end
  begin
     id 19
     name lradius
     direction 1 -4.48965e-011 -3.92618e-028   
     length 3.21737   
     axis 180 -30 -90   XYZ
    dof rx
    limits (-10.0 170.0)
  end
  begin
     id 20
     name lwrist
     direction 1 -4.49037e-011 2.57246e-027   
     length 1.60869   
     axis -1.61769e-015 90 90   XYZ
    dof ry
    limits (-180.0 0.0)
 end
  begin
     id 21 
     name lhand
     direction 1 -4.48807e-011 5.12958e-027   
     length 0.564313   
     axis -3.27988e-015 90 90   XYZ
    dof rx rz
    limits (-90.0 90.0)
           (-45.0 45.0)
  end
  begin
     id 22 
     name lfingers
     direction 1 -4.48879e-011 1.02687e-026   
     length 0.454963   
     axis -6.5598e-015 90 90   XYZ
    dof rx
    limits (0.0 90.0)
  end
  begin
     id 23
     name lthumb
     direction 0.707107 -6.3475e-011 0.707107   
     length 0.653239   
     axis -90 45 2.19363e-014   XYZ
    dof rx rz
    limits (-45.0 45.0)
           (-45.0 45.0)
  end
  begin
     id 24 
     name rclavicle
     direction -0.954677 0.253915 0.155304   
     length 3.11497  
     axis 0 0 0   XYZ 
    dof ry rz
    limits (-10.0 20.0)
           (-20.0 0.0)
  end
  begin
     id 25 
     name rhumerus
     direction -1 -4.48958e-011 -8.20169e-028  
     length 4.34118   
     axis 180 30 90   XYZ
    dof rx ry rz
    limits (-90.0 60.0)
           (-90.0 90.0)
           (-90.0 90.0)
  end
  begin
     id 26 
     name rradius
     direction -1 -4.48978e-011 1.5676e-027   
     length 3.09531   
     axis 180 30 90   XYZ
    dof rx
    limits (-10.0 170.0)
  end
  begin
     id 27 
     name rwrist
     direction -1 -4.49001e-011 2.57123e-027   
     length 1.54765   
     axis -1.61769e-015 -90 -90   XYZ
    dof ry
    limits (-180.0 0.0)
  end
  begin
     id 28
     name rhand
     direction -1 -4.48847e-011 5.13225e-027   
     length 0.597446   
     axis -3.27988e-015 -90 -90   XYZ
    dof rx rz
    limits (-90.0 90.0)
           (-45.0 45.0)
  end
  begin
     id 29
     name rfingers
     direction -1 -4.49094e-011 1.02974e-026   
     length 0.481677   
     axis -6.5598e-015 -90 -90   XYZ
    dof rx
    limits (0.0 90.0)
  end
  begin
     id 30
     name rthumb
     direction -0.707107 -6.34859e-011 0.707107   
     length 0.691594   
     axis -90 -45 -2.19363e-014   XYZ
    dof rx rz
    limits (-45.0 45.0)
           (-45.0 45.0)
  end
:hierarchy
  begin
    root lhipjoint rhipjoint lowerback
    lhipjoint lfemur
    lfemur ltibia
    ltibia lfoot
    lfoot ltoes
    rhipjoint rfemur
    rfemur rtibia
    rtibia rfoot
    rfoot rtoes
    lowerback upperback
    upperback thorax
    thorax lowerneck lclavicle rclavicle
    lowerneck upperneck
    upperneck head
    lclavicle lhumerus
    lhumerus lradius
    lradius lwrist
    lwrist lhand lthumb
    lhand lfingers
    rclavicle rhumerus
    rhumerus rradius
    rradius rwrist
    rwrist rhand rthumb
    rhand rfingers
  end

#!OML:ASF I:\Acrobat_Osman\acrobat\cartwheel_test 2\Patient 1\Session 1\acrobat.ASF
:FULLY-SPECIFIED
:DEGREES
1077
root 5.77534 15.5538 -12.3012 2.49423 -0.672879 2.19443
lowerback 1.24975 0.43367 -3.99217
upperback 6.47833 0.645727 0.51063
thorax 5.98306 0.0917035 2.79194
lowerneck -11.4042 -5.54498 -6.84704
upperneck -0.582846 -6.62394 4.34799
head 2.22016 -3.19006 2.24348
rclavicle -1.2921e-015 1.63003e-014
rhumerus 49.666 51.2924 -61.3498
rradius 34.2754
rwrist 6.65639
rhand -29.4839 31.6973
rfingers 7.12502
rthumb -2.819 1.73622
lclavicle -1.2921e-015 1.63003e-014
lhumerus 80.0798 -34.6775 24.767
lradius 42.3011
lwrist 30.4453
lhand -20.3445 42.985
lfingers 7.12502
lthumb 6.00718 1152.88
rfemur -20.6633 1.96533 21.4134
rtibia 41.3368
rfoot -17.4644 1.09213
rtoes -0.250497
lfemur -199.676 171.702 -206.239
ltibia 40.831
lfoot -16.3221 -2.17852
ltoes -13.9622
1078
root 5.78129 15.5783 -12.3016 3.01052 -0.772085 2.18266
lowerback 2.1154 0.390977 -5.14465
upperback 5.62006 0.504941 1.5453
thorax 4.58974 -0.0109052 4.50318
lowerneck -11.3363 -5.69542 -7.9744
upperneck -0.56489 -6.66349 3.90064
head 2.24513 -3.22463 2.2965
rclavicle 9.54166e-015 -7.95139e-016
rhumerus 51.252 57.6515 -62.2918
rradius 37.2045
rwrist 7.53377
rhand -31.4872 34.8741
rfingers 7.12502
rthumb -4.75359 4.94739
lclavicle 9.54166e-015 -7.95139e-016
lhumerus 85.7774 -36.3339 24.8746
lradius 44.2551
lwrist 27.8349
lhand -19.022 38.8467
lfingers 7.12502
lthumb 7.28393 1148.7
rfemur -21.0235 2.31358 21.4181
rtibia 40.9807
rfoot -17.3285 0.588397
rtoes -1.26036
lfemur -200.07 171.949 -206.281
ltibia 40.5621
lfoot -16.2682 -2.10863
ltoes -13.7206
1079
root 5.78847 15.6001 -12.2939 3.52309 -0.827332 2.21234
lowerback 2.12017 0.388797 -4.87654
upperback 5.39711 0.50089 1.4094
thorax 4.35136 0.0137882 4.20705
lowerneck -11.6124 -5.90629 -8.07493
upperneck -0.852535 -6.91888 4.31653
head 2.24021 -3.3343 2.43354
rclavicle 3.27995e-015 4.77083e-015
rhumerus 53.7603 62.6372 -63.4597
rradius 40.4838
rwrist 6.42047
rhand -28.5611 36.0893
rfingers 7.12502
rthumb -1.92786 6.11824
lclavicle 3.27995e-015 4.77083e-015
lhumerus 92.384 -37.2844 22.8765
lradius 46.6647
lwrist 24.7553
lhand -17.7077 36.7236
lfingers 7.12502
lthumb 8.55245 1146.53
rfemur -21.2968 2.71969 21.3997
rtibia 40.5967
rfoot -17.3801 -0.158483
rtoes -2.76622
lfemur -200.387 172.122 -206.377
ltibia 40.2481
lfoot -16.464 -2.14565
ltoes -12.0508
1080
root 5.80103 15.6143 -12.2807 4.10257 -0.951557 2.42724
lowerback 1.0241 0.0985395 -10.5343
upperback 6.41863 0.0849893 6.37518
thorax 6.3158 -0.779775 13.013
lowerneck -15.563 -6.42781 -14.1525
upperneck -0.722024 -6.08033 2.57841
head 2.69158 -2.94272 2.57864
rclavicle -1.11319e-014 -3.33958e-014
rhumerus 72.8294 68.8461 -39.8486
rradius 45.6345
rwrist 4.95708
rhand -23.8741 38.8148
rfingers 7.12502
rthumb 2.59893 8.85089
lclavicle -1.11319e-014 -3.33958e-014
lhumerus 93.9403 -35.617 33.1951
lradius 46.9275
lwrist 20.8406
lhand -16.7759 35.5117
lfingers 7.12502
lthumb 9.45154 1145.28
rfemur -21.6098 3.05871 21.1424
rtibia 40.1857
rfoot -17.5561 -0.772932
rtoes -3.51318
lfemur -200.748 172.311 -206.732
ltibia 39.9576
lfoot -16.9342 -2.01713
ltoes -9.98346
1081
root 5.81602 15.6233 -12.2681 4.69707 -1.18696 2.56693
lowerback 0.176749 0.47847 -14.4908
upperback 6.65969 0.652601 9.8818
thorax 7.08934 -1.02051 20.055
lowerneck -16.4807 -7.37268 -18.8973
upperneck -1.48747 -6.21779 1.09577
head 2.62777 -3.03122 2.77015
rclavicle -2.54444e-014 -1.01778e-013
rhumerus 94.5456 71.484 -13.1021
rradius 50.6204
rwrist -0.0568884
rhand -28.3466 36.8309
rfingers 7.12502
rthumb -1.72062 6.85805
lclavicle -2.54444e-014 -1.01778e-013
lhumerus 97.3611 -35.9496 40.7981
lradius 47.7566
lwrist 18.4093
lhand -16.5634 31.0957
lfingers 7.12502
lthumb 9.65661 1140.85
rfemur -21.9517 3.60946 20.933
rtibia 39.7678
rfoot -17.7715 -1.35758
rtoes -3.26795
lfemur -201.153 172.565 -206.998
ltibia 39.709
lfoot -17.396 -1.68914
ltoes -9.3974
